<svg width="73" height="82" viewBox="0 0 73 82" fill="none" xmlns="http://www.w3.org/2000/svg">
<mask id="path-1-inside-1_2_31" fill="white">
<path d="M7.55173 82C6.2931 82 5.03448 81.5789 3.77586 80.9474C1.46839 79.6842 0 77.1579 0 74.4211V7.4737C0 4.73686 1.46839 2.21053 3.77586 0.947369C6.08333 -0.315789 9.02012 -0.315789 11.3276 0.947369L69.2241 34.4211C71.5316 35.6842 73 38.2105 73 40.9474C73 43.6842 71.5316 46.2105 69.2241 47.4737L11.3276 80.9474C10.069 81.5789 8.81035 82 7.55173 82ZM7.55173 4.10526C6.92242 4.10526 6.50287 4.31582 5.87356 4.52634C4.82471 5.15792 4.1954 6.21054 4.1954 7.4737V74.4211C4.1954 75.6842 4.82471 76.7369 5.87356 77.3684C6.92241 78 8.18104 78 9.22989 77.3684L67.1264 43.8948C68.1753 43.2632 68.8046 42.2105 68.8046 40.9474C68.8046 39.6842 68.1753 38.6316 67.1264 38L9.22989 4.52634C8.60058 4.31582 7.97127 4.10526 7.55173 4.10526Z"/>
</mask>
<path d="M7.55173 82C6.2931 82 5.03448 81.5789 3.77586 80.9474C1.46839 79.6842 0 77.1579 0 74.4211V7.4737C0 4.73686 1.46839 2.21053 3.77586 0.947369C6.08333 -0.315789 9.02012 -0.315789 11.3276 0.947369L69.2241 34.4211C71.5316 35.6842 73 38.2105 73 40.9474C73 43.6842 71.5316 46.2105 69.2241 47.4737L11.3276 80.9474C10.069 81.5789 8.81035 82 7.55173 82ZM7.55173 4.10526C6.92242 4.10526 6.50287 4.31582 5.87356 4.52634C4.82471 5.15792 4.1954 6.21054 4.1954 7.4737V74.4211C4.1954 75.6842 4.82471 76.7369 5.87356 77.3684C6.92241 78 8.18104 78 9.22989 77.3684L67.1264 43.8948C68.1753 43.2632 68.8046 42.2105 68.8046 40.9474C68.8046 39.6842 68.1753 38.6316 67.1264 38L9.22989 4.52634C8.60058 4.31582 7.97127 4.10526 7.55173 4.10526Z" fill="#231F20"/>
<path d="M3.77586 80.9474L-4.38721 95.8593L-4.12047 96.0053L-3.84867 96.1417L3.77586 80.9474ZM11.3276 0.947369L19.8366 -13.7699L19.6648 -13.8692L19.4907 -13.9645L11.3276 0.947369ZM69.2241 34.4211L60.7152 49.1383L60.887 49.2377L61.0611 49.333L69.2241 34.4211ZM69.2241 47.4737L61.0611 32.5618L60.887 32.6571L60.7152 32.7565L69.2241 47.4737ZM11.3276 80.9474L18.9521 96.1417L19.4014 95.9162L19.8366 95.6646L11.3276 80.9474ZM5.87356 4.52634L0.48026 -11.5955L-1.29361 -11.002L-2.89601 -10.0371L5.87356 4.52634ZM9.22989 77.3684L0.720913 62.6512L0.589926 62.7269L0.460308 62.805L9.22989 77.3684ZM67.1264 43.8948L75.6354 58.612L75.7664 58.5363L75.896 58.4582L67.1264 43.8948ZM67.1264 38L75.896 23.4366L75.7664 23.3585L75.6354 23.2828L67.1264 38ZM9.22989 4.52634L17.7389 -10.1909L16.252 -11.0506L14.6232 -11.5955L9.22989 4.52634ZM7.55173 65C8.82641 65 9.82021 65.2138 10.4396 65.3951C11.0404 65.571 11.381 65.7433 11.4004 65.7531L-3.84867 96.1417C-1.43031 97.3552 2.56392 99 7.55173 99V65ZM11.9389 66.0355C15.3072 67.8793 17 71.2091 17 74.4211H-17C-17 83.1067 -12.3704 91.4891 -4.38721 95.8593L11.9389 66.0355ZM17 74.4211V7.4737H-17V74.4211H17ZM17 7.4737C17 10.6856 15.3073 14.0154 11.9389 15.8593L-4.38721 -13.9645C-12.3705 -9.5943 -17 -1.21185 -17 7.4737H17ZM11.9389 15.8593C9.16045 17.3803 5.943 17.3803 3.16451 15.8593L19.4907 -13.9645C12.0972 -18.0118 3.00621 -18.0118 -4.38721 -13.9645L11.9389 15.8593ZM2.81861 15.6646L60.7152 49.1383L77.7331 19.7038L19.8366 -13.7699L2.81861 15.6646ZM61.0611 49.333C57.6928 47.4891 56 44.1593 56 40.9474H90C90 32.2617 85.3704 23.8794 77.3872 19.5092L61.0611 49.333ZM56 40.9474C56 37.7355 57.6927 34.4057 61.0611 32.5618L77.3872 62.3856C85.3705 58.0154 90 49.6329 90 40.9474H56ZM60.7152 32.7565L2.81861 66.2301L19.8366 95.6646L77.7331 62.1909L60.7152 32.7565ZM3.70306 65.7531C3.72246 65.7433 4.06306 65.571 4.66385 65.3951C5.28324 65.2138 6.27704 65 7.55173 65V99C12.5395 99 16.5338 97.3552 18.9521 96.1417L3.70306 65.7531ZM7.55173 -12.8947C5.15932 -12.8947 3.20677 -12.4614 1.81122 -12.0412C1.22323 -11.8642 0.732759 -11.6873 0.576536 -11.6313C0.325155 -11.5411 0.416387 -11.5741 0.48026 -11.5955L11.2669 20.6481C11.6454 20.5215 12.0251 20.3833 12.049 20.3747C12.1681 20.332 11.9398 20.4168 11.6141 20.5149C11.2417 20.6271 10.6556 20.785 9.91739 20.9085C9.16226 21.0348 8.36816 21.1053 7.55173 21.1053V-12.8947ZM-2.89601 -10.0371C-8.85338 -6.44982 -12.8046 0.020194 -12.8046 7.4737H21.1954C21.1954 12.4009 18.5028 16.7657 14.6431 19.0898L-2.89601 -10.0371ZM-12.8046 7.4737V74.4211H21.1954V7.4737H-12.8046ZM-12.8046 74.4211C-12.8046 81.8746 -8.85338 88.3446 -2.89601 91.9319L14.6431 62.805C18.5028 65.1291 21.1954 69.4939 21.1954 74.4211H-12.8046ZM-2.89601 91.9319C3.54791 95.8122 11.5555 95.8122 17.9995 91.9319L0.460308 62.805C4.80653 60.1878 10.2969 60.1878 14.6431 62.805L-2.89601 91.9319ZM17.7389 92.0857L75.6354 58.612L58.6175 29.1775L0.720913 62.6512L17.7389 92.0857ZM75.896 58.4582C81.8536 54.8708 85.8046 48.4007 85.8046 40.9474H51.8046C51.8046 36.0204 54.497 31.6555 58.3569 29.3313L75.896 58.4582ZM85.8046 40.9474C85.8046 33.4939 81.8534 27.0239 75.896 23.4366L58.3569 52.5635C54.4972 50.2393 51.8046 45.8745 51.8046 40.9474H85.8046ZM75.6354 23.2828L17.7389 -10.1909L0.720912 19.2436L58.6175 52.7173L75.6354 23.2828ZM14.6232 -11.5955C14.4183 -11.664 13.6325 -11.9322 12.8005 -12.1599C12.1976 -12.325 10.129 -12.8947 7.55173 -12.8947V21.1053C6.31856 21.1053 5.37066 20.959 4.88835 20.8721C4.36622 20.7781 3.98719 20.6784 3.82381 20.6336C3.56866 20.5638 3.41219 20.5062 3.83658 20.6481L14.6232 -11.5955Z" fill="black" mask="url(#path-1-inside-1_2_31)"/>
</svg>
