<svg width="62" height="79" viewBox="0 0 62 79" fill="none" xmlns="http://www.w3.org/2000/svg">
<mask id="path-1-inside-1_2_33" fill="white">
<path d="M17.396 79H6.70304C3.03233 79 0 75.9677 0 72.297V6.70303C0 3.03232 3.03233 0 6.70304 0H17.396C21.0667 0 24.099 3.03232 24.099 6.70303V72.297C24.2586 75.9677 21.2263 79 17.396 79ZM6.86263 3.03234C4.94748 3.03234 3.35153 4.62829 3.35153 6.54344V72.1374C3.35153 74.0525 4.94748 75.6485 6.86263 75.6485H17.5556C19.4707 75.6485 21.0667 74.0525 21.0667 72.1374V6.54344C21.0667 4.62829 19.4707 3.03234 17.5556 3.03234H6.86263Z"/>
</mask>
<path d="M17.396 79H6.70304C3.03233 79 0 75.9677 0 72.297V6.70303C0 3.03232 3.03233 0 6.70304 0H17.396C21.0667 0 24.099 3.03232 24.099 6.70303V72.297C24.2586 75.9677 21.2263 79 17.396 79ZM6.86263 3.03234C4.94748 3.03234 3.35153 4.62829 3.35153 6.54344V72.1374C3.35153 74.0525 4.94748 75.6485 6.86263 75.6485H17.5556C19.4707 75.6485 21.0667 74.0525 21.0667 72.1374V6.54344C21.0667 4.62829 19.4707 3.03234 17.5556 3.03234H6.86263Z" fill="#231F20"/>
<path d="M24.099 72.297H18.099V72.4273L18.1047 72.5576L24.099 72.297ZM17.396 73H6.70304V85H17.396V73ZM6.70304 73C6.55033 73 6.37563 72.9403 6.21764 72.7824C6.05965 72.6244 6 72.4497 6 72.297H-6C-6 79.2814 -0.281363 85 6.70304 85V73ZM6 72.297V6.70303H-6V72.297H6ZM6 6.70303C6 6.55033 6.05965 6.37563 6.21764 6.21764C6.37563 6.05966 6.55033 6 6.70304 6V-6C-0.281363 -6 -6 -0.281405 -6 6.70303H6ZM6.70304 6H17.396V-6H6.70304V6ZM17.396 6C17.5487 6 17.7234 6.05966 17.8814 6.21764C18.0393 6.37563 18.099 6.55033 18.099 6.70303H30.099C30.099 -0.281405 24.3804 -6 17.396 -6V6ZM18.099 6.70303V72.297H30.099V6.70303H18.099ZM18.1047 72.5576C18.1068 72.6056 18.0995 72.6328 18.0904 72.6556C18.079 72.6838 18.0537 72.7297 18.0011 72.7824C17.8978 72.8856 17.7036 73 17.396 73V85C24.3883 85 30.4121 79.3683 30.0933 72.0363L18.1047 72.5576ZM6.86263 -2.96766C1.63377 -2.96766 -2.64847 1.31458 -2.64847 6.54344H9.35153C9.35153 7.942 8.26119 9.03234 6.86263 9.03234V-2.96766ZM-2.64847 6.54344V72.1374H9.35153V6.54344H-2.64847ZM-2.64847 72.1374C-2.64847 77.3662 1.63372 81.6485 6.86263 81.6485V69.6485C8.26124 69.6485 9.35153 70.7389 9.35153 72.1374H-2.64847ZM6.86263 81.6485H17.5556V69.6485H6.86263V81.6485ZM17.5556 81.6485C22.7844 81.6485 27.0667 77.3662 27.0667 72.1374H15.0667C15.0667 70.7388 16.157 69.6485 17.5556 69.6485V81.6485ZM27.0667 72.1374V6.54344H15.0667V72.1374H27.0667ZM27.0667 6.54344C27.0667 1.31456 22.7844 -2.96766 17.5556 -2.96766V9.03234C16.157 9.03234 15.0667 7.94203 15.0667 6.54344H27.0667ZM17.5556 -2.96766H6.86263V9.03234H17.5556V-2.96766Z" fill="black" mask="url(#path-1-inside-1_2_33)"/>
<mask id="path-3-inside-2_2_33" fill="white">
<path d="M54.901 79H44.3676C40.6969 79 37.6646 75.9677 37.6646 72.297V6.70303C37.6646 3.03232 40.6969 0 44.3676 0H55.0606C58.7313 0 61.7636 3.03232 61.7636 6.70303V72.297C61.604 75.9677 58.7313 79 54.901 79ZM44.3676 3.03234C42.4525 3.03234 40.8565 4.62829 40.8565 6.54344V72.1374C40.8565 74.0525 42.4525 75.6485 44.3676 75.6485H55.0606C56.9757 75.6485 58.5717 74.0525 58.5717 72.1374V6.54344C58.5717 4.62829 56.9757 3.03234 55.0606 3.03234H44.3676Z"/>
</mask>
<path d="M54.901 79H44.3676C40.6969 79 37.6646 75.9677 37.6646 72.297V6.70303C37.6646 3.03232 40.6969 0 44.3676 0H55.0606C58.7313 0 61.7636 3.03232 61.7636 6.70303V72.297C61.604 75.9677 58.7313 79 54.901 79ZM44.3676 3.03234C42.4525 3.03234 40.8565 4.62829 40.8565 6.54344V72.1374C40.8565 74.0525 42.4525 75.6485 44.3676 75.6485H55.0606C56.9757 75.6485 58.5717 74.0525 58.5717 72.1374V6.54344C58.5717 4.62829 56.9757 3.03234 55.0606 3.03234H44.3676Z" fill="#231F20"/>
<path d="M61.7636 72.297L67.7579 72.5576L67.7636 72.4273V72.297H61.7636ZM54.901 73H44.3676V85H54.901V73ZM44.3676 73C44.2149 73 44.0402 72.9403 43.8822 72.7824C43.7243 72.6244 43.6646 72.4497 43.6646 72.297H31.6646C31.6646 79.2814 37.3832 85 44.3676 85V73ZM43.6646 72.297V6.70303H31.6646V72.297H43.6646ZM43.6646 6.70303C43.6646 6.55032 43.7243 6.37562 43.8822 6.21764C44.0402 6.05966 44.2149 6 44.3676 6V-6C37.3832 -6 31.6646 -0.281391 31.6646 6.70303H43.6646ZM44.3676 6H55.0606V-6H44.3676V6ZM55.0606 6C55.2133 6 55.388 6.05966 55.5459 6.21764C55.7039 6.37562 55.7636 6.55032 55.7636 6.70303H67.7636C67.7636 -0.281391 62.045 -6 55.0606 -6V6ZM55.7636 6.70303V72.297H67.7636V6.70303H55.7636ZM55.7693 72.0363C55.7545 72.3766 55.6183 72.6302 55.4662 72.7824C55.336 72.9125 55.1712 73 54.901 73V85C62.1815 85 67.4694 79.1945 67.7579 72.5576L55.7693 72.0363ZM44.3676 -2.96766C39.1388 -2.96766 34.8565 1.31458 34.8565 6.54344H46.8565C46.8565 7.942 45.7662 9.03234 44.3676 9.03234V-2.96766ZM34.8565 6.54344V72.1374H46.8565V6.54344H34.8565ZM34.8565 72.1374C34.8565 77.3662 39.1387 81.6485 44.3676 81.6485V69.6485C45.7662 69.6485 46.8565 70.7389 46.8565 72.1374H34.8565ZM44.3676 81.6485H55.0606V69.6485H44.3676V81.6485ZM55.0606 81.6485C60.2895 81.6485 64.5717 77.3662 64.5717 72.1374H52.5717C52.5717 70.7389 53.662 69.6485 55.0606 69.6485V81.6485ZM64.5717 72.1374V6.54344H52.5717V72.1374H64.5717ZM64.5717 6.54344C64.5717 1.31458 60.2894 -2.96766 55.0606 -2.96766V9.03234C53.662 9.03234 52.5717 7.942 52.5717 6.54344H64.5717ZM55.0606 -2.96766H44.3676V9.03234H55.0606V-2.96766Z" fill="black" mask="url(#path-3-inside-2_2_33)"/>
</svg>
