<svg width="52" height="90" viewBox="0 0 52 90" fill="none" xmlns="http://www.w3.org/2000/svg">
<path d="M26 66.6456C35.3798 66.6456 42.9494 59.0759 42.9494 49.6962V16.9494C42.9494 7.5696 35.3798 0 26 0C16.6203 0 9.05063 7.5696 9.05063 16.9494V49.6962C9.05063 59.0759 16.6203 66.6456 26 66.6456ZM12.3418 16.9494C12.3418 9.37973 18.4304 3.29114 26 3.29114C33.5696 3.29114 39.6582 9.37973 39.6582 16.9494V49.6962C39.6582 57.2658 33.5696 63.3544 26 63.3544C18.4304 63.3544 12.3418 57.2658 12.3418 49.6962V16.9494Z" fill="#231F20"/>
<path d="M50.3544 41.4684C49.3671 41.4684 48.7089 42.1266 48.7089 43.114V50.3545C48.7089 62.8608 38.5063 73.0634 26 73.0634C13.4937 73.0634 3.29114 62.8608 3.29114 50.3545V43.114C3.29114 42.1266 2.63291 41.4684 1.64557 41.4684C0.658228 41.4684 0 42.1266 0 43.114V50.3545C0 64.1772 10.8608 75.3671 24.3544 76.3545V86.3925H10.6962C9.70886 86.3925 9.05064 87.0507 9.05064 88.038C9.05064 89.0254 9.70886 89.6836 10.6962 89.6836H41.3038C42.2911 89.6836 42.9494 89.0254 42.9494 88.038C42.9494 87.0507 42.2911 86.3925 41.3038 86.3925H27.6456V76.3545C41.1393 75.5317 52 64.1772 52 50.3545V43.114C52 42.2912 51.1772 41.4684 50.3544 41.4684Z" fill="#231F20"/>
</svg>
